<svg aria-roledescription="gitGraph" viewBox="-200.6999969482422 -18.399999618530273 1008.7000122070312 536.0031127929688" height="100%" xmlns="http://www.w3.org/2000/svg" width="1008.7000122070312" id="graph-div" style="max-width: 100%;" xmlns:xlink="http://www.w3.org/1999/xlink"><style>@import url("https://cdnjs.cloudflare.com/ajax/libs/font-awesome/6.2.1/css/all.min.css");'</style><style>#graph-div{font-family:"trebuchet ms",verdana,arial,sans-serif;font-size:16px;fill:#ccc;}#graph-div .error-icon{fill:#a44141;}#graph-div .error-text{fill:#ddd;stroke:#ddd;}#graph-div .edge-thickness-normal{stroke-width:2px;}#graph-div .edge-thickness-thick{stroke-width:3.5px;}#graph-div .edge-pattern-solid{stroke-dasharray:0;}#graph-div .edge-pattern-dashed{stroke-dasharray:3;}#graph-div .edge-pattern-dotted{stroke-dasharray:2;}#graph-div .marker{fill:lightgrey;stroke:lightgrey;}#graph-div .marker.cross{stroke:lightgrey;}#graph-div svg{font-family:"trebuchet ms",verdana,arial,sans-serif;font-size:16px;}#graph-div .commit-id,#graph-div .commit-msg,#graph-div .branch-label{fill:lightgrey;color:lightgrey;font-family:'trebuchet ms',verdana,arial,sans-serif;font-family:var(--mermaid-font-family);}#graph-div .branch-label0{fill:undefined;}#graph-div .commit0{stroke:hsl(180, 1.5873015873%, 48.3529411765%);fill:hsl(180, 1.5873015873%, 48.3529411765%);}#graph-div .commit-highlight0{stroke:rgb(133.6571428571, 129.7428571428, 129.7428571428);fill:rgb(133.6571428571, 129.7428571428, 129.7428571428);}#graph-div .label0{fill:hsl(180, 1.5873015873%, 48.3529411765%);}#graph-div .arrow0{stroke:hsl(180, 1.5873015873%, 48.3529411765%);}#graph-div .branch-label1{fill:undefined;}#graph-div .commit1{stroke:hsl(321.6393442623, 65.5913978495%, 38.2352941176%);fill:hsl(321.6393442623, 65.5913978495%, 38.2352941176%);}#graph-div .commit-highlight1{stroke:rgb(93.5483870969, 221.4516129033, 139.677419355);fill:rgb(93.5483870969, 221.4516129033, 139.677419355);}#graph-div .label1{fill:hsl(321.6393442623, 65.5913978495%, 38.2352941176%);}#graph-div .arrow1{stroke:hsl(321.6393442623, 65.5913978495%, 38.2352941176%);}#graph-div .branch-label2{fill:undefined;}#graph-div .commit2{stroke:hsl(194.4, 16.5562913907%, 49.6078431373%);fill:hsl(194.4, 16.5562913907%, 49.6078431373%);}#graph-div .commit-highlight2{stroke:rgb(149.4437086091, 117.6092715231, 107.5562913906);fill:rgb(149.4437086091, 117.6092715231, 107.5562913906);}#graph-div .label2{fill:hsl(194.4, 16.5562913907%, 49.6078431373%);}#graph-div .arrow2{stroke:hsl(194.4, 16.5562913907%, 49.6078431373%);}#graph-div .branch-label3{fill:undefined;}#graph-div .commit3{stroke:hsl(23.0769230769, 49.0566037736%, 40.7843137255%);fill:hsl(23.0769230769, 49.0566037736%, 40.7843137255%);}#graph-div .commit-highlight3{stroke:rgb(99.9811320754, 162.7735849057, 202.0188679245);fill:rgb(99.9811320754, 162.7735849057, 202.0188679245);}#graph-div .label3{fill:hsl(23.0769230769, 49.0566037736%, 40.7843137255%);}#graph-div .arrow3{stroke:hsl(23.0769230769, 49.0566037736%, 40.7843137255%);}#graph-div .branch-label4{fill:undefined;}#graph-div .commit4{stroke:hsl(0, 83.3333333333%, 43.5294117647%);fill:hsl(0, 83.3333333333%, 43.5294117647%);}#graph-div .commit-highlight4{stroke:rgb(51.5000000001, 236.5, 236.5);fill:rgb(51.5000000001, 236.5, 236.5);}#graph-div .label4{fill:hsl(0, 83.3333333333%, 43.5294117647%);}#graph-div .arrow4{stroke:hsl(0, 83.3333333333%, 43.5294117647%);}#graph-div .branch-label5{fill:undefined;}#graph-div .commit5{stroke:hsl(289.1666666667, 100%, 24.1176470588%);fill:hsl(289.1666666667, 100%, 24.1176470588%);}#graph-div .commit-highlight5{stroke:rgb(154.2083333334, 255, 132.0000000001);fill:rgb(154.2083333334, 255, 132.0000000001);}#graph-div .label5{fill:hsl(289.1666666667, 100%, 24.1176470588%);}#graph-div .arrow5{stroke:hsl(289.1666666667, 100%, 24.1176470588%);}#graph-div .branch-label6{fill:undefined;}#graph-div .commit6{stroke:hsl(35.1315789474, 98.7012987013%, 40.1960784314%);fill:hsl(35.1315789474, 98.7012987013%, 40.1960784314%);}#graph-div .commit-highlight6{stroke:rgb(51.331168831, 135.1948051946, 253.6688311688);fill:rgb(51.331168831, 135.1948051946, 253.6688311688);}#graph-div .label6{fill:hsl(35.1315789474, 98.7012987013%, 40.1960784314%);}#graph-div .arrow6{stroke:hsl(35.1315789474, 98.7012987013%, 40.1960784314%);}#graph-div .branch-label7{fill:undefined;}#graph-div .commit7{stroke:hsl(106.1538461538, 84.4155844156%, 35.0980392157%);fill:hsl(106.1538461538, 84.4155844156%, 35.0980392157%);}#graph-div .commit-highlight7{stroke:rgb(206.1818181817, 89.948051948, 241.051948052);fill:rgb(206.1818181817, 89.948051948, 241.051948052);}#graph-div .label7{fill:hsl(106.1538461538, 84.4155844156%, 35.0980392157%);}#graph-div .arrow7{stroke:hsl(106.1538461538, 84.4155844156%, 35.0980392157%);}#graph-div .branch{stroke-width:1;stroke:lightgrey;stroke-dasharray:2;}#graph-div .commit-label{font-size:10px;fill:rgb(183.8476190475, 181.5523809523, 181.5523809523);}#graph-div .commit-label-bkg{font-size:10px;fill:hsl(180, 1.5873015873%, 28.3529411765%);opacity:0.5;}#graph-div .tag-label{font-size:10px;fill:#e0dfdf;}#graph-div .tag-label-bkg{fill:#1f2020;stroke:#cccccc;}#graph-div .tag-hole{fill:#ccc;}#graph-div .commit-merge{stroke:#1f2020;fill:#1f2020;}#graph-div .commit-reverse{stroke:#1f2020;fill:#1f2020;stroke-width:3;}#graph-div .commit-highlight-inner{stroke:#1f2020;fill:#1f2020;}#graph-div .arrow{stroke-width:8;stroke-linecap:round;fill:none;}#graph-div .gitTitleText{text-anchor:middle;font-size:18px;fill:#ccc;}:root{--mermaid-font-family:"trebuchet ms",verdana,arial,sans-serif;}</style><g></g><g class="commit-bullets"></g><g class="commit-labels"></g><g><line class="branch branch0" y2="0" x2="800" y1="0" x1="0"></line><rect transform="translate(-19, -9.199999809265137)" height="22.399999618530273" width="53" y="-1.1999998092651367" x="-69" ry="4" rx="4" class="branchLabelBkg label0"></rect><g class="branchLabel"><g transform="translate(-79, -10.199999809265137)" class="label branch-label0"><text><tspan class="row" x="0" dy="1em" xml:space="preserve">main</tspan></text></g></g><line class="branch branch1" y2="90" x2="800" y1="90" x1="0"></line><rect transform="translate(-19, 80.80000019073486)" height="22.399999618530273" width="134.61666870117188" y="-1.1999998092651367" x="-150.61666870117188" ry="4" rx="4" class="branchLabelBkg label1"></rect><g class="branchLabel"><g transform="translate(-160.61666870117188, 79.80000019073486)" class="label branch-label1"><text><tspan class="row" x="0" dy="1em" xml:space="preserve">hotfix/issue-523</tspan></text></g></g><line class="branch branch2" y2="180" x2="800" y1="180" x1="0"></line><rect transform="translate(-19, 170.80000019073486)" height="22.399999618530273" width="50.400001525878906" y="-1.1999998092651367" x="-66.4000015258789" ry="4" rx="4" class="branchLabelBkg label2"></rect><g class="branchLabel"><g transform="translate(-76.4000015258789, 169.80000019073486)" class="label branch-label2"><text><tspan class="row" x="0" dy="1em" xml:space="preserve">beta</tspan></text></g></g><line class="branch branch3" y2="270" x2="800" y1="270" x1="0"></line><rect transform="translate(-19, 260.71666622161865)" height="22.566667556762695" width="74.43333435058594" y="-1.2833337783813477" x="-90.43333435058594" ry="4" rx="4" class="branchLabelBkg label3"></rect><g class="branchLabel"><g transform="translate(-100.43333435058594, 259.71666622161865)" class="label branch-label3"><text><tspan class="row" x="0" dy="1em" xml:space="preserve">develop</tspan></text></g></g><line class="branch branch4" y2="360" x2="800" y1="360" x1="0"></line><rect transform="translate(-19, 350.71666622161865)" height="22.566667556762695" width="157.6999969482422" y="-1.2833337783813477" x="-173.6999969482422" ry="4" rx="4" class="branchLabelBkg label4"></rect><g class="branchLabel"><g transform="translate(-183.6999969482422, 349.71666622161865)" class="label branch-label4"><text><tspan class="row" x="0" dy="1em" xml:space="preserve">adaptation/1.19.20</tspan></text></g></g><line class="branch branch5" y2="450" x2="800" y1="450" x1="0"></line><rect transform="translate(-19, 440.80000019073486)" height="22.399999618530273" width="156.56666564941406" y="-1.1999998092651367" x="-172.56666564941406" ry="4" rx="4" class="branchLabelBkg label5"></rect><g class="branchLabel"><g transform="translate(-182.56666564941406, 439.80000019073486)" class="label branch-label5"><text><tspan class="row" x="0" dy="1em" xml:space="preserve">feature/offline-nbt</tspan></text></g></g></g><g class="commit-arrows"><path class="arrow arrow3" d="M 10 0 L 10 250 A 20 20, 0, 0, 0, 30 270 L 60 270"></path><path class="arrow arrow5" d="M 60 270 L 60 430 A 20 20, 0, 0, 0, 80 450 L 110 450"></path><path class="arrow arrow5" d="M 110 450 L 110 450  110 450 L 160 450"></path><path class="arrow arrow3" d="M 60 270 L 60 270  60 270 L 210 270"></path><path class="arrow arrow5" d="M 160 450 L 190 450 A 20 20, 0, 0, 0, 210 430 L 210 270"></path><path class="arrow arrow3" d="M 210 270 L 210 270  210 270 L 260 270"></path><path class="arrow arrow2" d="M 10 0 L 10 160 A 20 20, 0, 0, 0, 30 180 L 310 180"></path><path class="arrow arrow3" d="M 260 270 L 290 270 A 20 20, 0, 0, 0, 310 250 L 310 180"></path><path class="arrow arrow4" d="M 310 180 L 310 340 A 20 20, 0, 0, 0, 330 360 L 360 360"></path><path class="arrow arrow4" d="M 360 360 L 360 360  360 360 L 410 360"></path><path class="arrow arrow3" d="M 260 270 L 260 270  260 270 L 460 270"></path><path class="arrow arrow2" d="M 310 180 L 310 180  310 180 L 510 180"></path><path class="arrow arrow4" d="M 410 360 L 490 360 A 20 20, 0, 0, 0, 510 340 L 510 180"></path><path class="arrow arrow3" d="M 460 270 L 460 270  460 270 L 560 270"></path><path class="arrow arrow3" d="M 510 180 L 510 250 A 20 20, 0, 0, 0, 530 270 L 560 270"></path><path class="arrow arrow2" d="M 510 180 L 510 180  510 180 L 610 180"></path><path class="arrow arrow3" d="M 560 270 L 590 270 A 20 20, 0, 0, 0, 610 250 L 610 180"></path><path class="arrow arrow0" d="M 10 0 L 10 0  10 0 L 660 0"></path><path class="arrow arrow2" d="M 610 180 L 640 180 A 20 20, 0, 0, 0, 660 160 L 660 0"></path><path class="arrow arrow1" d="M 660 0 L 660 70 A 20 20, 0, 0, 0, 680 90 L 710 90"></path><path class="arrow arrow0" d="M 660 0 L 660 0  660 0 L 760 0"></path><path class="arrow arrow1" d="M 710 90 L 740 90 A 20 20, 0, 0, 0, 760 70 L 760 0"></path></g><g class="commit-bullets"><circle class="commit 0-46edb72 commit0" r="10" cy="0" cx="10"></circle><circle class="commit 1-f9cfb89 commit3" r="10" cy="270" cx="60"></circle><circle class="commit 2-b29f56d commit5" r="10" cy="450" cx="110"></circle><circle class="commit 3-a64c0fc commit5" r="10" cy="450" cx="160"></circle><circle class="commit 4-37acf97 commit3" r="9" cy="270" cx="210"></circle><circle class="commit commit-merge 4-37acf97 commit3" r="6" cy="270" cx="210"></circle><circle class="commit 5-000b3c6 commit3" r="10" cy="270" cx="260"></circle><circle class="commit 6-47f97ab commit2" r="9" cy="180" cx="310"></circle><circle class="commit commit-merge 6-47f97ab commit2" r="6" cy="180" cx="310"></circle><circle class="commit 7-a15fff6 commit4" r="10" cy="360" cx="360"></circle><circle class="commit 8-6fe8187 commit4" r="10" cy="360" cx="410"></circle><circle class="commit 9-e69f121 commit3" r="10" cy="270" cx="460"></circle><circle class="commit 10-a3ff7ad commit2" r="9" cy="180" cx="510"></circle><circle class="commit commit-merge 10-a3ff7ad commit2" r="6" cy="180" cx="510"></circle><circle class="commit 11-5d16307 commit3" r="9" cy="270" cx="560"></circle><circle class="commit commit-merge 11-5d16307 commit3" r="6" cy="270" cx="560"></circle><circle class="commit 12-1e92abd commit2" r="9" cy="180" cx="610"></circle><circle class="commit commit-merge 12-1e92abd commit2" r="6" cy="180" cx="610"></circle><circle class="commit 13-8db7b59 commit0" r="9" cy="0" cx="660"></circle><circle class="commit commit-merge 13-8db7b59 commit0" r="6" cy="0" cx="660"></circle><circle class="commit 14-d5c4baf commit1" r="10" cy="90" cx="710"></circle><circle class="commit 15-e51e713 commit0" r="9" cy="0" cx="760"></circle><circle class="commit commit-merge 15-e51e713 commit0" r="6" cy="0" cx="760"></circle></g><g class="commit-labels"><g transform="translate(-30.756000289916994, 27.408000259399415) rotate(-45, 0, 0)"><rect height="16" width="55.20000076293945" y="13.5" x="-17.600000381469727" class="commit-label-bkg"></rect><text class="commit-label" y="25" x="-15.600000381469727">0-46edb72</text></g><g transform="translate(-29.23600028991699, 26.048000259399416) rotate(-45, 50, 270)"><rect height="16" width="51.20000076293945" y="283.5" x="34.39999961853027" class="commit-label-bkg"></rect><text class="commit-label" y="295" x="36.39999961853027">1-f9cfb89</text></g><g transform="translate(-30.147999420166016, 26.863999481201173) rotate(-45, 100, 450)"><rect height="16" width="53.599998474121094" y="463.5" x="83.20000076293945" class="commit-label-bkg"></rect><text class="commit-label" y="475" x="85.20000076293945">2-b29f56d</text></g><g transform="translate(-29.54, 26.32) rotate(-45, 150, 450)"><rect height="16" width="52" y="463.5" x="134" class="commit-label-bkg"></rect><text class="commit-label" y="475" x="136">3-a64c0fc</text></g><g transform="translate(-30.452000579833985, 27.136000518798827) rotate(-45, 250, 270)"><rect height="16" width="54.400001525878906" y="283.5" x="232.79999923706055" class="commit-label-bkg"></rect><text class="commit-label" y="295" x="234.79999923706055">5-000b3c6</text></g><g transform="translate(-28.932000579833986, 25.77600051879883) rotate(-45, 350, 360)"><rect height="16" width="50.400001525878906" y="373.5" x="334.79999923706055" class="commit-label-bkg"></rect><text class="commit-label" y="385" x="336.79999923706055">7-a15fff6</text></g><g transform="translate(-30.147999420166016, 26.863999481201173) rotate(-45, 400, 360)"><rect height="16" width="53.599998474121094" y="373.5" x="383.20000076293945" class="commit-label-bkg"></rect><text class="commit-label" y="385" x="385.20000076293945">8-6fe8187</text></g><g transform="translate(-30.147999420166016, 26.863999481201173) rotate(-45, 450, 270)"><rect height="16" width="53.599998474121094" y="283.5" x="433.20000076293945" class="commit-label-bkg"></rect><text class="commit-label" y="295" x="435.20000076293945">9-e69f121</text></g><g transform="translate(-31.97200057983398, 28.496000518798827) rotate(-45, 700, 90)"><rect height="16" width="58.400001525878906" y="103.5" x="680.7999992370605" class="commit-label-bkg"></rect><text class="commit-label" y="115" x="682.7999992370605">14-d5c4baf</text></g></g></svg>